<?xml version="1.0" encoding="UTF-8" standalone="no"?>
<!-- Created with Inkscape (http://www.inkscape.org/) -->

<svg
   xmlns:dc="http://purl.org/dc/elements/1.1/"
   xmlns:cc="http://creativecommons.org/ns#"
   xmlns:rdf="http://www.w3.org/1999/02/22-rdf-syntax-ns#"
   xmlns:svg="http://www.w3.org/2000/svg"
   xmlns="http://www.w3.org/2000/svg"
   xmlns:sodipodi="http://sodipodi.sourceforge.net/DTD/sodipodi-0.dtd"
   xmlns:inkscape="http://www.inkscape.org/namespaces/inkscape"
   version="1.1"
   id="svg2"
   xml:space="preserve"
   width="607.37469"
   height="158.276"
   viewBox="0 0 607.37469 158.276"
   sodipodi:docname="bloomreach.ai.svg"
   inkscape:version="0.92.5 (2060ec1f9f, 2020-04-08)"><metadata
     id="metadata8"><rdf:RDF><cc:Work
         rdf:about=""><dc:format>image/svg+xml</dc:format><dc:type
           rdf:resource="http://purl.org/dc/dcmitype/StillImage" /><dc:title></dc:title></cc:Work></rdf:RDF></metadata><defs
     id="defs6"><clipPath
       clipPathUnits="userSpaceOnUse"
       id="clipPath20"><path
         d="M 0,297.957 H 483.281 V 0 H 0 Z"
         id="path18"
         inkscape:connector-curvature="0" /></clipPath></defs><sodipodi:namedview
     pagecolor="#ffffff"
     bordercolor="#666666"
     borderopacity="1"
     objecttolerance="10"
     gridtolerance="10"
     guidetolerance="10"
     inkscape:pageopacity="0"
     inkscape:pageshadow="2"
     inkscape:window-width="2928"
     inkscape:window-height="1600"
     id="namedview4"
     showgrid="false"
     inkscape:zoom="1.6802143"
     inkscape:cx="244.76853"
     inkscape:cy="304.62992"
     inkscape:window-x="144"
     inkscape:window-y="54"
     inkscape:window-maximized="1"
     inkscape:current-layer="g10" /><g
     id="g10"
     inkscape:groupmode="layer"
     inkscape:label="Bloomreach logos - colour variants"
     transform="matrix(1.3333333,0,0,-1.3333333,0,158.27595)"><path
       d="m 166.35369,39.900283 h -6.85402 v 42.83796 h 6.85402 z"
       style="fill:#002840;fill-opacity:1;fill-rule:nonzero;stroke:none;stroke-width:1.31529856"
       id="path12"
       inkscape:connector-curvature="0" /><g
       id="g14"
       transform="matrix(1.3152986,0,0,1.3152986,-90.833221,-137.7571)"><g
         id="g16"
         clip-path="url(#clipPath20)"><g
           id="g22"
           transform="translate(289.4114,148.532)"><path
             d="m 0,0 v -13.462 h -5.212 v 12.593 c -0.043,3.343 -2.344,5.428 -5.253,5.428 -2.997,0 -5.169,-2.301 -5.212,-5.298 v -12.723 h -5.211 v 12.593 c 0,3.388 -2.258,5.428 -5.255,5.428 -2.952,0 -5.21,-2.388 -5.21,-5.471 v -12.55 h -5.211 V 8.945 h 5.211 V 6.34 c 1.693,1.998 4.125,3.04 6.644,3.04 3.039,0 5.819,-1.347 7.469,-3.822 1.823,2.475 4.733,3.822 7.816,3.822 C -4.343,9.38 -0.044,5.905 0,0"
             style="fill:#002840;fill-opacity:1;fill-rule:nonzero;stroke:none"
             id="path24"
             inkscape:connector-curvature="0" /></g><g
           id="g26"
           transform="translate(306.5142,157.912)"><path
             d="m 0,0 v -5.515 c -5.037,0.347 -7.556,-2.258 -7.556,-5.689 v -11.638 h -5.212 v 22.407 h 5.212 v -3.17 C -5.689,-1.26 -2.91,0 0,0"
             style="fill:#002840;fill-opacity:1;fill-rule:nonzero;stroke:none"
             id="path28"
             inkscape:connector-curvature="0" /></g><g
           id="g30"
           transform="translate(312.5486,148.3575)"><path
             d="M 0,0 H 12.897 C 12.288,2.779 9.596,4.907 6.6,4.907 3.256,4.907 0.825,2.866 0,0 m 17.586,-3.951 h -17.63 c 0.694,-2.953 3.127,-5.124 6.688,-5.124 2.649,0 4.864,1.128 6.253,3.604 l 4.343,-1.824 c -1.955,-3.908 -5.732,-6.427 -10.336,-6.427 -7.122,0 -12.029,5.168 -12.029,11.638 0,6.471 4.864,11.638 11.594,11.638 6.428,0 12.42,-5.342 11.117,-13.505"
             style="fill:#002840;fill-opacity:1;fill-rule:nonzero;stroke:none"
             id="path32"
             inkscape:connector-curvature="0" /></g><g
           id="g34"
           transform="translate(351.3242,146.2739)"><path
             d="m 0,0 c 0,3.822 -2.779,6.904 -6.601,6.904 -3.821,0 -6.513,-3.082 -6.513,-6.904 0,-3.822 2.692,-6.906 6.513,-6.906 C -2.779,-6.906 0,-3.822 0,0 M 5.211,11.203 V -11.204 H 0 v 2.997 c -1.824,-2.215 -4.473,-3.431 -7.513,-3.431 -6.253,0 -10.899,4.777 -10.899,11.638 0,6.86 4.646,11.638 10.899,11.638 3.04,0 5.689,-1.217 7.513,-3.431 v 2.996 z"
             style="fill:#002840;fill-opacity:1;fill-rule:nonzero;stroke:none"
             id="path36"
             inkscape:connector-curvature="0" /></g><g
           id="g38"
           transform="translate(360.1787,146.2739)"><path
             d="m 0,0 c 0,6.47 4.864,11.638 11.551,11.638 5.124,0 9.162,-2.909 10.899,-7.166 l -4.82,-1.65 c -1.085,2.346 -3.343,3.995 -5.949,3.995 -3.908,0 -6.47,-3.04 -6.47,-6.817 0,-3.779 2.953,-6.818 6.513,-6.818 2.693,0 4.994,1.737 6.08,4.255 l 4.69,-1.823 c -1.693,-4.256 -5.732,-7.252 -10.9,-7.252 C 4.777,-11.638 0,-6.471 0,0"
             style="fill:#002840;fill-opacity:1;fill-rule:nonzero;stroke:none"
             id="path40"
             inkscape:connector-curvature="0" /></g><g
           id="g42"
           transform="translate(407.5515,148.0539)"><path
             d="m 0,0 v -12.984 h -5.211 v 12.159 c 0,3.691 -2.562,5.862 -5.733,5.862 -3.3,0 -5.774,-2.475 -5.774,-5.949 v -12.072 h -5.212 v 32.569 h 5.212 V 6.514 c 1.824,2.171 4.428,3.344 7.165,3.344 C -4.386,9.858 0,6.21 0,0"
             style="fill:#002840;fill-opacity:1;fill-rule:nonzero;stroke:none"
             id="path44"
             inkscape:connector-curvature="0" /></g><g
           id="g46"
           transform="translate(173.779,139.4556)"><path
             d="m 0,0 c -2.599,0 -4.683,1.397 -5.772,3.447 -0.531,0.998 -0.829,2.148 -0.829,3.371 0,1.223 0.298,2.373 0.829,3.371 1.089,2.049 3.173,3.447 5.772,3.447 3.822,0 6.601,-3.083 6.601,-6.818 C 6.601,3.083 3.822,0 0,0 m -5.772,16.429 c 0,0 0,0 0,0 v 0.001 11.753 h -5.211 V -4.386 h 5.211 l 0.001,1.596 v 10e-4 c 1.786,-1.145 3.957,-1.811 6.378,-1.811 1.58,0 3.055,0.291 4.39,0.811 4.122,1.809 6.815,5.829 6.815,10.607 0,4.789 -2.705,8.818 -6.844,10.621 -1.328,0.513 -2.793,0.802 -4.362,0.802 -2.422,0 -4.592,-0.667 -6.378,-1.812 0,0 0,0 0,0 v 0.001"
             style="fill:#002840;fill-opacity:1;fill-rule:nonzero;stroke:none"
             id="path48"
             inkscape:connector-curvature="0" /></g><g
           id="g50"
           transform="translate(211.2118,139.4551)"><path
             d="m 0,0 c 3.822,0 6.601,3.083 6.601,6.821 0,3.733 -2.779,6.817 -6.601,6.817 -3.865,0 -6.601,-3.084 -6.601,-6.817 C -6.601,3.083 -3.865,0 0,0 m -11.813,6.821 c 0,6.512 4.954,11.636 11.813,11.636 6.817,0 11.81,-5.124 11.81,-11.636 0,-6.517 -4.993,-11.64 -11.81,-11.64 -6.859,0 -11.813,5.123 -11.813,11.64"
             style="fill:#002840;fill-opacity:1;fill-rule:nonzero;stroke:none"
             id="path52"
             inkscape:connector-curvature="0" /></g><g
           id="g54"
           transform="translate(237.4365,139.4551)"><path
             d="m 0,0 c 3.822,0 6.601,3.083 6.601,6.821 0,3.733 -2.779,6.817 -6.601,6.817 -3.865,0 -6.601,-3.084 -6.601,-6.817 C -6.601,3.083 -3.865,0 0,0 m -11.813,6.821 c 0,6.512 4.954,11.636 11.813,11.636 6.817,0 11.81,-5.124 11.81,-11.636 0,-6.517 -4.993,-11.64 -11.81,-11.64 -6.859,0 -11.813,5.123 -11.813,11.64"
             style="fill:#002840;fill-opacity:1;fill-rule:nonzero;stroke:none"
             id="path56"
             inkscape:connector-curvature="0" /></g><g
           id="g58"
           transform="translate(147.5997,148.9784)"><path
             d="M 0,0 C 0,19.846 -16.089,35.935 -35.935,35.935 -55.782,35.935 -71.87,19.846 -71.87,0 c 0,-19.846 16.088,-35.935 35.935,-35.935 C -16.089,-35.935 0,-19.846 0,0"
             style="fill:#ffd500;fill-opacity:1;fill-rule:nonzero;stroke:none"
             id="path60"
             inkscape:connector-curvature="0" /></g><g
           id="g62"
           transform="translate(118.9482,156.4423)"><path
             d="m 0,0 -1.761,-4.478 c 1.857,-1.157 3.031,-3.258 3.031,-5.639 0,-3.611 -2.686,-6.591 -6.379,-6.591 -3.735,0 -6.379,2.98 -6.379,6.591 0,3.515 2.513,6.424 6.094,6.573 l 1.656,4.591 C -10.399,1.93 -16.51,-2.836 -16.51,-9.821 l -0.014,0.007 v -11.55 h 5.036 v 1.812 c 1.786,-1.146 3.957,-1.812 6.379,-1.812 6.587,0 11.411,4.95 11.411,11.247 C 6.302,-5.611 3.822,-1.805 0,0"
             style="fill:#002840;fill-opacity:1;fill-rule:nonzero;stroke:none"
             id="path64"
             inkscape:connector-curvature="0" /></g><g
           id="g66"
           transform="translate(102.4241,156.9895)"><path
             d="m 0,0 c 0,0 2.061,2.23 5.029,3.416 v 7.233 H 0 Z"
             style="fill:#002840;fill-opacity:1;fill-rule:nonzero;stroke:none"
             id="path68"
             inkscape:connector-curvature="0" /></g></g></g></g></svg>