<?xml version="1.0" encoding="UTF-8" standalone="no"?>
<!-- Created with Inkscape (http://www.inkscape.org/) -->

<svg
   xmlns:dc="http://purl.org/dc/elements/1.1/"
   xmlns:cc="http://creativecommons.org/ns#"
   xmlns:rdf="http://www.w3.org/1999/02/22-rdf-syntax-ns#"
   xmlns:svg="http://www.w3.org/2000/svg"
   xmlns="http://www.w3.org/2000/svg"
   xmlns:sodipodi="http://sodipodi.sourceforge.net/DTD/sodipodi-0.dtd"
   xmlns:inkscape="http://www.inkscape.org/namespaces/inkscape"
   version="1.1"
   id="svg2"
   xml:space="preserve"
   width="283.60132"
   height="188.11333"
   viewBox="0 0 283.60131 188.11333"
   sodipodi:docname="ajtyvit.svg"
   inkscape:version="0.92.5 (2060ec1f9f, 2020-04-08)"><metadata
     id="metadata8"><rdf:RDF><cc:Work
         rdf:about=""><dc:format>image/svg+xml</dc:format><dc:type
           rdf:resource="http://purl.org/dc/dcmitype/StillImage" /><dc:title></dc:title></cc:Work></rdf:RDF></metadata><defs
     id="defs6"><clipPath
       clipPathUnits="userSpaceOnUse"
       id="clipPath22"><path
         d="M 0,841.89 H 595.276 V 0 H 0 Z"
         id="path20"
         inkscape:connector-curvature="0" /></clipPath></defs><sodipodi:namedview
     pagecolor="#ffffff"
     bordercolor="#666666"
     borderopacity="1"
     objecttolerance="10"
     gridtolerance="10"
     guidetolerance="10"
     inkscape:pageopacity="0"
     inkscape:pageshadow="2"
     inkscape:window-width="2928"
     inkscape:window-height="1600"
     id="namedview4"
     showgrid="false"
     fit-margin-top="30"
     fit-margin-right="30"
     fit-margin-bottom="30"
     fit-margin-left="30"
     inkscape:zoom="1.189304"
     inkscape:cx="470.9668"
     inkscape:cy="511.54673"
     inkscape:window-x="144"
     inkscape:window-y="54"
     inkscape:window-maximized="1"
     inkscape:current-layer="g10" /><g
     id="g10"
     inkscape:groupmode="layer"
     inkscape:label="logo ajtyvIT zakladne_RGB"
     transform="matrix(1.3333333,0,0,-1.3333333,13.174634,173.52281)"><g
       id="g12"
       transform="translate(12.619025,107.64211)"><path
         d="M 0,0 V -81.872 H 14.214 V -96.085 H 167.701 V 0 Z"
         style="fill:#1c3997;fill-opacity:1;fill-rule:nonzero;stroke:none"
         id="path14"
         inkscape:connector-curvature="0" /></g><g
       id="g16"
       transform="translate(-201.16808,-361.34579)"><g
         id="g18"
         clip-path="url(#clipPath22)"><g
           id="g24"
           transform="translate(358.1357,410.9835)"><path
             d="m 0,0 v 2.904 h -3.604 v 5.24 H -7.032 V 6.352 H -8.824 V -5.557 c 0,-3.141 0.719,-5.434 2.155,-6.881 1.139,-1.145 2.77,-1.83 4.877,-2.067 v 1.691 h 1.763 V -10 c -0.005,0 -0.009,-10e-4 -0.013,-10e-4 -0.874,0 -1.549,0.156 -2.021,0.469 -0.473,0.312 -0.826,0.719 -1.058,1.218 -0.232,0.499 -0.37,1.057 -0.415,1.673 -0.044,0.617 -0.068,1.218 -0.068,1.808 V 0 Z m -18.643,26.371 -3.56,-7.041 -3.668,7.041 h -2.767 v -1.792 h -1.853 l 5.637,-10.069 -6.18,-11.611 h 5.458 l 12.503,23.472 z m -17.684,-35.287 -3.715,8.901 h -2.869 v -1.791 h -1.793 l 5.717,-12.803 h 5.24 l 6.556,14.594 H -32.6 Z m 20.488,7.11 h -1.792 v -12.803 h 5.223 v 14.594 h -3.431 z m -46.875,19.489 c -0.195,-0.43 -0.45,-0.807 -0.765,-1.133 -0.318,-0.328 -0.695,-0.582 -1.134,-0.767 -0.439,-0.183 -0.904,-0.275 -1.393,-0.275 -0.511,0 -0.986,0.092 -1.425,0.275 -0.439,0.185 -0.817,0.439 -1.133,0.767 -0.317,0.326 -0.567,0.709 -0.75,1.148 -0.185,0.439 -0.276,0.914 -0.276,1.425 0,0.49 0.091,0.943 0.276,1.362 0.183,0.418 0.433,0.791 0.75,1.119 0.316,0.326 0.694,0.582 1.133,0.765 0.439,0.184 0.914,0.276 1.425,0.276 0.489,0 0.954,-0.092 1.393,-0.276 0.439,-0.183 0.816,-0.439 1.134,-0.765 0.315,-0.328 0.57,-0.711 0.765,-1.15 0.194,-0.439 0.291,-0.903 0.291,-1.393 0,-0.491 -0.097,-0.95 -0.291,-1.378 m 4.911,8.69 h -4.873 V 25.52 c -1.926,0.701 -2.544,0.853 -4.257,0.853 -1.018,0 -1.946,-0.193 -2.785,-0.577 -0.839,-0.383 -1.562,-0.906 -2.168,-1.566 -0.608,-0.66 -1.081,-1.432 -1.42,-2.315 -0.339,-0.884 -0.508,-1.817 -0.508,-2.798 0,-1.054 0.174,-2.027 0.522,-2.919 0.348,-0.893 0.834,-1.669 1.459,-2.329 0.625,-0.661 1.356,-1.174 2.196,-1.539 0.838,-0.367 1.758,-0.549 2.758,-0.549 1.766,0 2.963,0.391 4.203,1.331 v -1.331 h 3.081 v 1.791 h 1.792 z m 22.998,-14.49 v 1.691 h 1.763 v 2.814 c -0.005,0 -0.009,0 -0.013,0 -0.874,0 -1.549,0.156 -2.021,0.468 -0.473,0.313 -0.825,0.719 -1.058,1.218 -0.231,0.499 -0.37,1.058 -0.415,1.674 -0.044,0.616 -0.067,1.218 -0.067,1.808 v 4.832 h 3.603 v 2.905 h -3.603 v 5.239 h -3.429 V 32.74 h -1.792 V 20.832 c 0,-3.142 0.719,-5.435 2.155,-6.881 1.139,-1.146 2.77,-1.83 4.877,-2.068 m -17.632,12.698 h -1.792 V 12.554 c 0,-0.59 -0.023,-1.192 -0.067,-1.808 -0.045,-0.616 -0.183,-1.175 -0.415,-1.674 -0.232,-0.499 -0.585,-0.905 -1.058,-1.218 -0.472,-0.312 -1.147,-0.468 -2.021,-0.468 -0.005,0 -0.009,10e-4 -0.013,10e-4 V 2.78 h 0.013 c 2.98,0 5.189,0.723 6.627,2.169 1.436,1.447 2.155,3.739 2.155,6.881 v 14.543 h -3.429 z"
             style="fill:#ffffff;fill-opacity:1;fill-rule:nonzero;stroke:none"
             id="path26"
             inkscape:connector-curvature="0" /></g><g
           id="g28"
           transform="translate(342.2988,419.1271)"><path
             d="M 0,0 V -1.792 H -1.792 V -5.221 H 3.429 V 0 Z m -36.6,24.578 h -1.792 v -3.429 h 5.221 V 26.37 H -36.6 Z"
             style="fill:#f9596d;fill-opacity:1;fill-rule:nonzero;stroke:none"
             id="path30"
             inkscape:connector-curvature="0" /></g></g></g></g></svg>