<?xml version="1.0" encoding="UTF-8" standalone="no"?>
<svg
   xmlns:dc="http://purl.org/dc/elements/1.1/"
   xmlns:cc="http://creativecommons.org/ns#"
   xmlns:rdf="http://www.w3.org/1999/02/22-rdf-syntax-ns#"
   xmlns:svg="http://www.w3.org/2000/svg"
   xmlns="http://www.w3.org/2000/svg"
   viewBox="0 0 1915.6934 479.16"
   height="479.16"
   width="1915.6934"
   xml:space="preserve"
   id="svg45"
   version="1.1"><metadata
     id="metadata51"><rdf:RDF><cc:Work
         rdf:about=""><dc:format>image/svg+xml</dc:format><dc:type
           rdf:resource="http://purl.org/dc/dcmitype/StillImage" /><dc:title></dc:title></cc:Work></rdf:RDF></metadata><defs
     id="defs49"><clipPath
       id="clipPath79"
       clipPathUnits="userSpaceOnUse"><path
         id="path77"
         d="m 1423.36,1411.82 c 100.11,-99.27 224.61,-148.88 373.49,-148.88 148.88,0 273.38,49.61 373.49,148.88 100.11,99.22 150.17,227.57 150.17,385.03 0,157.44 -50.06,285.78 -150.17,385.05 -100.11,99.22 -224.61,148.88 -373.49,148.88 -148.88,0 -273.38,-49.66 -373.49,-148.88 -100.11,-99.27 -150.16,-227.61 -150.16,-385.05 0,-157.46 50.05,-285.81 150.16,-385.03 z m 1035.76,-279.8 C 2277.71,952.332 2056.95,862.488 1796.85,862.488 c -260.14,0 -480.9,89.844 -662.27,269.532 -181.408,179.69 -272.092,401.29 -272.092,664.83 0,263.52 90.684,485.16 272.092,664.84 181.37,179.69 402.13,269.53 662.27,269.53 260.1,0 480.86,-89.84 662.27,-269.53 181.37,-179.68 272.09,-401.32 272.09,-664.84 0,-263.54 -90.72,-485.14 -272.09,-664.83 z" /></clipPath><linearGradient
       id="linearGradient85"
       spreadMethod="pad"
       gradientTransform="matrix(1971.65,-1567.63,-1567.63,-1971.65,1055.74,2386.09)"
       gradientUnits="userSpaceOnUse"
       y2="0"
       x2="1"
       y1="0"
       x1="0"><stop
         id="stop81"
         offset="0"
         style="stop-opacity:1;stop-color:#5c4daa" /><stop
         id="stop83"
         offset="1"
         style="stop-opacity:1;stop-color:#d50b77" /></linearGradient><clipPath
       id="clipPath95"
       clipPathUnits="userSpaceOnUse"><path
         id="path93"
         d="M 3105.99,2695.28 H 2695.28 V 898.43 h 410.71 z" /></clipPath><linearGradient
       id="linearGradient101"
       spreadMethod="pad"
       gradientTransform="matrix(1971.65,-1567.63,-1567.63,-1971.65,1483.25,2923.79)"
       gradientUnits="userSpaceOnUse"
       y2="0"
       x2="1"
       y1="0"
       x1="0"><stop
         id="stop97"
         offset="0"
         style="stop-opacity:1;stop-color:#5c4daa" /><stop
         id="stop99"
         offset="1"
         style="stop-opacity:1;stop-color:#d50b77" /></linearGradient></defs><g
     transform="matrix(1.3333333,0,0,-1.3333333,0,479.16)"
     id="g53"><g
       transform="scale(0.1)"
       id="g55"><path
         id="path57"
         style="fill:#230e22;fill-opacity:1;fill-rule:nonzero;stroke:none"
         d="m 4362.56,1580.87 c 55.43,-56.16 125.77,-84.21 211.05,-84.21 85.27,0 155.95,28.05 212.11,84.21 56.13,56.13 84.21,128.24 84.21,216.38 0,88.1 -28.08,160.22 -84.21,216.38 -56.16,56.12 -126.84,84.2 -212.11,84.2 -85.28,0 -155.62,-28.08 -211.05,-84.2 -55.43,-56.16 -83.14,-128.28 -83.14,-216.38 0,-88.14 27.71,-160.25 83.14,-216.38 z m 507.37,749.33 h 275 V 1264.3 h -275 v 125.78 c -82.44,-103.76 -198.26,-155.63 -347.49,-155.63 -142.13,0 -264.01,54.37 -365.6,163.09 -101.63,108.72 -152.43,241.95 -152.43,399.71 0,157.76 50.8,290.99 152.43,399.71 101.59,108.72 223.47,163.09 365.6,163.09 149.23,0 265.05,-51.9 347.49,-155.63 v 125.78" /><path
         id="path59"
         style="fill:#230e22;fill-opacity:1;fill-rule:nonzero;stroke:none"
         d="m 5950.98,2065.86 h -240.9 v -443.42 c 0,-36.97 9.23,-63.95 27.72,-81.01 18.45,-17.06 45.46,-26.65 81,-28.77 35.51,-2.14 79.58,-1.8 132.18,1.06 V 1264.3 c -189.04,-21.32 -322.27,-3.53 -399.72,53.3 -77.47,56.82 -116.18,158.44 -116.18,304.84 v 443.42 h -185.47 v 264.34 h 185.47 v 215.32 l 275,83.13 V 2330.2 h 240.9 v -264.34" /><path
         id="path61"
         style="fill:#230e22;fill-opacity:1;fill-rule:nonzero;stroke:none"
         d="m 6360.82,1580.87 c 55.43,-56.16 125.78,-84.21 211.05,-84.21 85.27,0 155.96,28.05 212.12,84.21 56.12,56.13 84.2,128.24 84.2,216.38 0,88.1 -28.08,160.22 -84.2,216.38 -56.16,56.12 -126.85,84.2 -212.12,84.2 -85.27,0 -155.62,-28.08 -211.05,-84.2 -55.42,-56.16 -83.14,-128.28 -83.14,-216.38 0,-88.14 27.72,-160.25 83.14,-216.38 z m 507.37,749.33 H 7143.2 V 1264.3 h -275.01 v 125.78 c -82.44,-103.76 -198.26,-155.63 -347.48,-155.63 -142.13,0 -264.01,54.37 -365.61,163.09 -101.62,108.72 -152.42,241.95 -152.42,399.71 0,157.76 50.8,290.99 152.42,399.71 101.6,108.72 223.48,163.09 365.61,163.09 149.22,0 265.04,-51.9 347.48,-155.63 v 125.78" /><path
         id="path63"
         style="fill:#230e22;fill-opacity:1;fill-rule:nonzero;stroke:none"
         d="m 7803.01,1234.45 c -160.62,0 -294.56,54 -401.85,162.02 -107.32,107.99 -160.95,241.6 -160.95,400.78 0,159.16 53.63,292.76 160.95,400.78 107.29,107.98 241.23,162.02 401.85,162.02 103.72,0 198.25,-24.88 283.53,-74.62 85.27,-49.76 149.92,-116.54 193.99,-200.38 L 8043.9,1946.47 c -21.32,44.05 -53.66,78.88 -97,104.47 -43.37,25.57 -92.03,38.37 -146.03,38.37 -82.44,0 -150.66,-27.39 -204.65,-82.07 -54.03,-54.73 -81.01,-124.71 -81.01,-209.99 0,-83.87 26.98,-153.16 81.01,-207.86 53.99,-54.71 122.21,-82.07 204.65,-82.07 55.43,0 104.8,12.43 148.16,37.31 43.34,24.85 75.68,59.32 97,103.39 l 238.76,-136.43 c -46.89,-83.88 -112.98,-151.02 -198.25,-201.45 -85.28,-50.43 -179.81,-75.69 -283.53,-75.69" /><path
         id="path65"
         style="fill:#230e22;fill-opacity:1;fill-rule:nonzero;stroke:none"
         d="m 8879.83,1234.45 c -160.62,0 -294.56,54 -401.85,162.02 -107.32,107.99 -160.95,241.6 -160.95,400.78 0,159.16 53.63,292.76 160.95,400.78 107.29,107.98 241.23,162.02 401.85,162.02 103.72,0 198.26,-24.88 283.53,-74.62 85.27,-49.76 149.93,-116.54 193.99,-200.38 l -236.63,-138.58 c -21.32,44.05 -53.66,78.88 -96.99,104.47 -43.37,25.57 -92.04,38.37 -146.03,38.37 -82.44,0 -150.66,-27.39 -204.66,-82.07 -54.02,-54.73 -81,-124.71 -81,-209.99 0,-83.87 26.98,-153.16 81,-207.86 54,-54.71 122.22,-82.07 204.66,-82.07 55.43,0 104.79,12.43 148.16,37.31 43.33,24.85 75.68,59.32 96.99,103.39 l 238.77,-136.43 c -46.9,-83.88 -112.99,-151.02 -198.26,-201.45 -85.27,-50.43 -179.81,-75.69 -283.53,-75.69" /><path
         id="path67"
         style="fill:#230e22;fill-opacity:1;fill-rule:nonzero;stroke:none"
         d="m 9755.66,1580.87 c 55.42,-56.16 125.77,-84.21 211.04,-84.21 85.3,0 156,28.05 212.1,84.21 56.1,56.13 84.2,128.24 84.2,216.38 0,88.1 -28.1,160.22 -84.2,216.38 -56.1,56.12 -126.8,84.2 -212.1,84.2 -85.27,0 -155.62,-28.08 -211.04,-84.2 -55.43,-56.16 -83.14,-128.28 -83.14,-216.38 0,-88.14 27.71,-160.25 83.14,-216.38 z M 10263,2330.2 h 275 V 1264.3 h -275 v 125.78 c -82.4,-103.76 -198.2,-155.63 -347.46,-155.63 -142.13,0 -264.01,54.37 -365.6,163.09 -101.63,108.72 -152.43,241.95 -152.43,399.71 0,157.76 50.8,290.99 152.43,399.71 101.59,108.72 223.47,163.09 365.6,163.09 149.26,0 265.06,-51.9 347.46,-155.63 v 125.78" /><path
         id="path69"
         style="fill:#230e22;fill-opacity:1;fill-rule:nonzero;stroke:none"
         d="m 11838.3,2360.05 c 122.2,0 219.9,-39.81 293.1,-119.39 73.2,-79.61 109.8,-186.2 109.8,-319.76 v -656.6 h -275 v 637.41 c 0,63.95 -15.7,113.68 -46.9,149.23 -31.3,35.5 -75.4,53.29 -132.2,53.29 -62.6,0 -111.2,-20.62 -146,-61.82 -34.9,-41.24 -52.3,-100.93 -52.3,-179.07 V 1264.3 h -275 v 637.41 c 0,63.95 -15.6,113.68 -46.9,149.23 -31.2,35.5 -75.3,53.29 -132.1,53.29 -61.2,0 -109.8,-20.62 -146.1,-61.82 -36.2,-41.24 -54.3,-100.93 -54.3,-179.07 V 1264.3 h -275 v 1065.9 h 275 v -112.98 c 63.9,95.19 162.7,142.83 296.3,142.83 130.7,0 227.4,-51.16 289.9,-153.5 71.1,102.34 177,153.5 317.7,153.5" /><path
         id="path71"
         style="fill:#230e22;fill-opacity:1;fill-rule:nonzero;stroke:none"
         d="m 12686.9,1580.87 c 55.4,-56.16 125.8,-84.21 211,-84.21 85.3,0 156,28.05 212.1,84.21 56.2,56.13 84.3,128.24 84.3,216.38 0,88.1 -28.1,160.22 -84.3,216.38 -56.1,56.12 -126.8,84.2 -212.1,84.2 -85.2,0 -155.6,-28.08 -211,-84.2 -55.4,-56.16 -83.2,-128.28 -83.2,-216.38 0,-88.14 27.8,-160.25 83.2,-216.38 z m 507.4,749.33 h 275 V 1264.3 h -275 v 125.78 c -82.5,-103.76 -198.3,-155.63 -347.5,-155.63 -142.2,0 -264,54.37 -365.6,163.09 -101.7,108.72 -152.5,241.95 -152.5,399.71 0,157.76 50.8,290.99 152.5,399.71 101.6,108.72 223.4,163.09 365.6,163.09 149.2,0 265,-51.9 347.5,-155.63 v 125.78" /><g
         id="g73"><g
           clip-path="url(#clipPath79)"
           id="g75"><path
             id="path87"
             style="fill:url(#linearGradient85);fill-opacity:1;fill-rule:nonzero;stroke:none"
             d="m 1423.36,1411.82 c 100.11,-99.27 224.61,-148.88 373.49,-148.88 148.88,0 273.38,49.61 373.49,148.88 100.11,99.22 150.17,227.57 150.17,385.03 0,157.44 -50.06,285.78 -150.17,385.05 -100.11,99.22 -224.61,148.88 -373.49,148.88 -148.88,0 -273.38,-49.66 -373.49,-148.88 -100.11,-99.27 -150.16,-227.61 -150.16,-385.05 0,-157.46 50.05,-285.81 150.16,-385.03 z m 1035.76,-279.8 C 2277.71,952.332 2056.95,862.488 1796.85,862.488 c -260.14,0 -480.9,89.844 -662.27,269.532 -181.408,179.69 -272.092,401.29 -272.092,664.83 0,263.52 90.684,485.16 272.092,664.84 181.37,179.69 402.13,269.53 662.27,269.53 260.1,0 480.86,-89.84 662.27,-269.53 181.37,-179.68 272.09,-401.32 272.09,-664.84 0,-263.54 -90.72,-485.14 -272.09,-664.83" /></g></g><g
         id="g89"><g
           clip-path="url(#clipPath95)"
           id="g91"><path
             id="path103"
             style="fill:url(#linearGradient101);fill-opacity:1;fill-rule:nonzero;stroke:none"
             d="M 3105.99,2695.28 H 2695.28 V 898.43 h 410.71 v 1796.85" /></g></g></g></g></svg>