<?xml version="1.0" encoding="UTF-8" standalone="no"?>
<svg
   xmlns:dc="http://purl.org/dc/elements/1.1/"
   xmlns:cc="http://creativecommons.org/ns#"
   xmlns:rdf="http://www.w3.org/1999/02/22-rdf-syntax-ns#"
   xmlns:svg="http://www.w3.org/2000/svg"
   xmlns="http://www.w3.org/2000/svg"
   viewBox="0 0 721.5733 228.98666"
   height="228.98666"
   width="721.5733"
   xml:space="preserve"
   id="svg64"
   version="1.1"><metadata
     id="metadata70"><rdf:RDF><cc:Work
         rdf:about=""><dc:format>image/svg+xml</dc:format><dc:type
           rdf:resource="http://purl.org/dc/dcmitype/StillImage" /><dc:title></dc:title></cc:Work></rdf:RDF></metadata><defs
     id="defs68" /><g
     transform="matrix(1.3333333,0,0,-1.3333333,0,228.98667)"
     id="g72"><g
       transform="scale(0.1)"
       id="g74"><path
         id="path76"
         style="fill:#f25c1c;fill-opacity:1;fill-rule:nonzero;stroke:none"
         d="m 227.434,1076.42 h 312.937 c 185.16,0 268.688,67.42 268.688,213.33 0,145.91 -83.528,213.33 -268.688,213.33 H 227.434 v -426.66 z m 0,-767.779 H 0 V 1717.42 h 546.402 c 325.039,0 499.108,-164.02 499.108,-427.67 0,-263.64 -174.069,-427.664 -499.108,-427.664 H 227.434 v -553.445 0" /><path
         id="path78"
         style="fill:#f25c1c;fill-opacity:1;fill-rule:nonzero;stroke:none"
         d="m 1272.07,790.641 c 0,-169.051 109.7,-308.922 290.82,-308.922 173.09,0 290.81,132.832 290.81,308.922 0,176.101 -117.72,308.939 -290.81,308.939 -181.12,0 -290.82,-139.881 -290.82,-308.939 z m 568.56,-482 V 424.359 C 1773.2,338.82 1675.59,283.48 1537.73,283.48 c -269.67,0 -482,212.329 -482,507.161 0,294.839 212.33,507.159 482,507.159 137.86,0 235.47,-56.35 302.9,-141.87 v 116.71 h 210.29 V 308.641 h -210.29 v 0" /><path
         id="path80"
         style="fill:#f25c1c;fill-opacity:1;fill-rule:nonzero;stroke:none"
         d="M 3028.16,1143.84 2893.32,999.949 c -68.41,64.401 -138.87,99.631 -231.43,99.631 -162.01,0 -284.79,-126.803 -284.79,-308.939 0,-182.129 122.78,-308.922 284.79,-308.922 92.56,0 175.08,43.269 236.48,100.633 L 3028.16,437.441 C 2939.61,335.809 2812.82,283.48 2667.92,283.48 c -305.91,0 -507.16,218.372 -507.16,507.161 0,288.799 201.25,507.159 507.16,507.159 144.9,0 274.71,-52.32 360.24,-153.96 v 0" /><path
         id="path82"
         style="fill:#f25c1c;fill-opacity:1;fill-rule:nonzero;stroke:none"
         d="M 3324.11,715.18 V 308.641 H 3112.82 V 1717.42 h 211.29 V 910.98" /><path
         id="path84"
         style="fill:#f25c1c;fill-opacity:1;fill-rule:nonzero;stroke:none"
         d="m 4280.11,308.641 v 772.819 h -192.19 v 191.18 h 192.19 v 291.83 h 211.32 v -291.83 h 192.65 V 1081.46 H 4491.43 V 308.641 h -211.32 v 0" /><path
         id="path86"
         style="fill:#f25c1c;fill-opacity:1;fill-rule:nonzero;stroke:none"
         d="m 3363.98,818.539 78.07,87.832 318,366.269 h 264.64 L 3621.18,818.824 4028.71,308.641 h -266.67 l -320.99,406.539 -77.07,103.359 v 0" /><path
         id="path88"
         style="fill:#f25c1c;fill-opacity:1;fill-rule:nonzero;stroke:none"
         d="m 5334.73,715.18 -321,-406.539 h -266.66 l 407.53,510.183 -403.52,453.816 h 264.65 l 317.99,-366.269 78.07,-87.832 -77.06,-103.359 v 0" /><path
         id="path90"
         style="fill:#f25c1c;fill-opacity:1;fill-rule:nonzero;stroke:none"
         d="M 5411.79,0 H 0 V 140.309 H 5411.79 V 0 0" /></g></g></svg>