<?xml version="1.0" encoding="UTF-8" standalone="no"?>
<!-- Created with Inkscape (http://www.inkscape.org/) -->

<svg
   xmlns:dc="http://purl.org/dc/elements/1.1/"
   xmlns:cc="http://creativecommons.org/ns#"
   xmlns:rdf="http://www.w3.org/1999/02/22-rdf-syntax-ns#"
   xmlns:svg="http://www.w3.org/2000/svg"
   xmlns="http://www.w3.org/2000/svg"
   xmlns:sodipodi="http://sodipodi.sourceforge.net/DTD/sodipodi-0.dtd"
   xmlns:inkscape="http://www.inkscape.org/namespaces/inkscape"
   version="1.1"
   id="svg2"
   xml:space="preserve"
   width="611.72723"
   height="361.09598"
   viewBox="0 0 611.72724 361.09598"
   sodipodi:docname="sufio.svg"
   inkscape:version="0.92.5 (2060ec1f9f, 2020-04-08)"><metadata
     id="metadata8"><rdf:RDF><cc:Work
         rdf:about=""><dc:format>image/svg+xml</dc:format><dc:type
           rdf:resource="http://purl.org/dc/dcmitype/StillImage" /><dc:title /></cc:Work></rdf:RDF></metadata><defs
     id="defs6"><clipPath
       clipPathUnits="userSpaceOnUse"
       id="clipPath18"><path
         d="M 0,210.822 H 398.796 V 0 H 0 Z"
         id="path16"
         inkscape:connector-curvature="0" /></clipPath></defs><sodipodi:namedview
     pagecolor="#ffffff"
     bordercolor="#666666"
     borderopacity="1"
     objecttolerance="10"
     gridtolerance="10"
     guidetolerance="10"
     inkscape:pageopacity="0"
     inkscape:pageshadow="2"
     inkscape:window-width="2928"
     inkscape:window-height="1600"
     id="namedview4"
     showgrid="false"
     fit-margin-top="40"
     fit-margin-left="40"
     fit-margin-bottom="40"
     fit-margin-right="40"
     inkscape:zoom="0.8395708"
     inkscape:cx="-57.416847"
     inkscape:cy="178.16584"
     inkscape:window-x="144"
     inkscape:window-y="54"
     inkscape:window-maximized="1"
     inkscape:current-layer="g10" /><g
     id="g10"
     inkscape:groupmode="layer"
     inkscape:label="sufio logo (1)-1"
     transform="matrix(1.3333333,0,0,-1.3333333,40,321.09599)"><g
       id="g12"
       transform="matrix(0.83050846,0,0,0.83050846,35.67967,15.186331)"><g
         id="g14"
         clip-path="url(#clipPath18)"><g
           id="g20"
           transform="translate(62.7817,115.7862)"><path
             d="m 0,0 c -20.294,10.378 -37.237,20.652 -37.237,34.286 0,14.166 7.19,23.521 23.726,33.75 13.876,8.584 29.833,11.5 38.333,11.5 16.25,0 22.25,-9.5 20.167,-16.75 C 40.893,48.528 22.152,29.662 7.539,30.6 H 7.537 c -1.037,0 -1.112,-1.81 -1.112,-2.365 0,-2.383 1.149,-6.241 3.716,-9.49 2.114,-2.676 5.99,-5.893 11.933,-5.533 13.99,0.848 34.614,19.974 40.085,41.025 2.376,9.14 1.325,21.017 -11.753,31.882 -6.132,5.093 -15.98,8.167 -26.417,8.167 -18.802,0 -39.98,-4.935 -57.301,-16.752 -19.166,-13.076 -28.18,-27.082 -28.18,-41.915 0,-30.5 23.379,-36.985 46.886,-48.915 24.118,-12.241 46.901,-23.803 43.254,-40.586 -4.969,-22.871 -40.362,-42.941 -59.12,-42.941 -3.596,0 -6.512,0.707 -8.666,2.103 -3.251,2.108 -4.617,5.44 -3.95,9.634 1.942,12.198 20.665,29.526 36.426,33.712 1.16,0.308 1.692,0.895 1.58,1.748 -0.337,2.592 -5.382,6.341 -13.62,6.341 -4.523,0 -9.365,-1.109 -14.393,-3.296 -15.503,-6.742 -28.508,-23.361 -29.607,-37.836 -0.74,-9.732 3.678,-17.904 12.775,-23.633 5.162,-3.25 12.332,-4.969 20.735,-4.969 31.209,0 71.296,21.827 81.639,57.086 C 59.872,-30.616 28.063,-14.351 0,0"
             style="fill:#231f20;fill-opacity:1;fill-rule:nonzero;stroke:none"
             id="path22"
             inkscape:connector-curvature="0" /></g><g
           id="g24"
           transform="translate(370.623,76.8477)"><path
             d="m 0,0 c -3.466,-5.677 -6.842,-8.803 -12.259,-9.845 -0.625,-0.12 -1.245,-0.18 -1.844,-0.18 -20.333,0 -14.327,43.67 -14.289,45.068 l 0.039,1.432 c 1.297,-0.517 4.563,-1.688 6.948,-1.245 0.123,0.023 0.222,0.007 0.299,0.016 -1.852,6.508 -0.832,12.759 2.863,17.702 3.193,4.272 8.055,6.925 12.687,6.925 5.332,0 8.243,-3.635 9.953,-9.482 C 8.583,36.08 8.187,13.412 0,0 M 26.289,46.252 C 23.077,62.77 11.964,73.725 -3.769,73.725 c -26.878,0 -34.412,-21.25 -34.718,-22.155 l -0.313,-0.916 -0.926,0.28 h 10e-4 c -0.003,0 -0.146,0.031 -0.383,0.031 -0.445,0 -1.163,-0.107 -2.063,-0.619 -3.548,-2.036 -8.046,-14.577 -7.451,-31.587 -4.466,-10.571 -11.439,-24.602 -16.814,-27.118 -0.622,-0.291 -1.233,-0.439 -1.817,-0.439 -0.782,0 -1.928,0.274 -2.945,1.577 -5.126,6.561 -3.572,35.214 4.095,65.946 0.707,2.828 0.118,5.476 -1.751,7.868 -3.142,4.022 -13.013,9.45 -17.042,9.45 -1.394,0 -2.392,-0.321 -2.54,-0.818 -0.767,-2.57 -2.502,-11.413 -4.053,-22.986 -8.256,-0.223 -15.842,-0.484 -22.607,-0.811 8.591,39.447 26.411,71.202 34.24,71.202 0.228,0 0.455,-0.024 0.67,-0.072 3.415,-0.753 3.259,-11.483 2.167,-17.417 -0.551,-2.995 0.084,-6.875 1,-8.75 2.506,-5.125 6.835,-7.307 10.709,-7.307 h 0.002 c 0.35,0 0.681,0.018 0.989,0.052 4.814,0.55 12.39,3.238 12.383,10.505 -0.02,23.083 -12.958,34.334 -28.458,34.334 -30.937,0 -46.923,-39.232 -53.084,-74.25 -0.584,-3.326 -1.115,-6.607 -1.613,-9.861 -8.011,-0.938 -12.991,-2.19 -14.171,-3.911 -2.926,-4.271 -5.096,-12.34 -4.248,-13.95 0.066,-0.123 0.134,-0.211 0.426,-0.211 0.126,0 0.274,0.02 0.44,0.057 4.067,0.932 8.413,1.697 12.834,2.331 -3.092,-13.669 -8.718,-33.411 -17.292,-40.122 -0.876,-0.687 -1.733,-1.035 -2.544,-1.035 -0.611,0 -1.511,0.204 -2.337,1.168 -5.337,6.238 -6.227,42.093 -1.664,71.222 0.299,1.917 -0.247,3.704 -1.622,5.312 -3.187,3.726 -10.117,5.736 -15.018,5.736 -3.14,0 -4.688,-0.81 -4.798,-1.563 l -0.185,-1.243 c -1.269,-8.528 -2.06,-16.35 -2.529,-23.512 -5.173,-39.808 -15.2,-53.063 -18.636,-55.752 -0.879,-0.69 -1.765,-1.062 -2.634,-1.107 -0.837,-0.044 -2.084,0.207 -3.267,1.647 -5.259,6.395 -8.828,35.903 -0.736,68.119 0.419,1.664 -0.006,3.282 -1.26,4.808 -3.356,4.082 -11.749,6.615 -17.182,6.334 -2.113,-0.109 -3.531,-0.67 -3.701,-1.464 -0.101,-0.475 -0.265,-1.4 -0.469,-2.677 -2.579,-7.427 -10.893,-23.86 -34.139,-35.708 -0.592,-0.301 -0.505,-1.225 -0.251,-1.925 1.044,-2.875 6.988,-7.106 16.138,-5.86 5.783,0.787 10.674,4.066 14.722,8.384 -0.599,-11.642 -0.663,-24.506 0.551,-36.397 1.583,-15.52 11.644,-25.904 22.65,-24.502 15.761,2.009 24.206,17.565 28.663,30.955 0.082,-1.598 0.146,-3.084 0.178,-4.449 0.403,-17.324 14.028,-24.949 22.97,-24.256 12.045,0.934 19.513,10.493 24.13,20.939 -0.445,-12.02 -0.387,-23.017 -0.047,-32.74 -54.826,-2.25 -96.203,-10.63 -105.626,-14.101 -9.987,-3.679 -14.256,-11.616 -12.344,-19.101 1.273,-4.962 6.061,-7.652 7.82,-6.761 29.312,14.88 69.874,23.245 110.848,26.243 0.704,-10.54 1.658,-18.913 2.406,-24.625 0.191,-1.448 1.036,-2.995 2.834,-2.995 0.225,0 0.462,0.025 0.703,0.073 5.26,1.046 16.965,6.512 15.75,21.125 -0.199,2.399 -0.387,4.91 -0.564,7.5 4.729,0.137 9.438,0.208 14.111,0.208 49.777,0 89.584,-5.595 93.457,-6.294 0.17,0.382 0.302,1.395 -0.142,2.729 -0.651,1.948 -3.298,6.673 -13.834,8.464 -27.765,4.72 -57.399,8.101 -88.076,8.101 -2.098,0 -4.183,-0.011 -6.253,-0.031 -1.008,22.796 -0.821,49.499 2.234,71.411 11.638,0.715 21.047,0.752 23.604,0.786 -1.123,-12.174 -1.699,-25.468 -0.818,-37.129 1.194,-15.813 10.552,-24.413 20.271,-24.413 11.75,0 21.748,12.701 27.993,23.381 0.092,-0.359 0.178,-0.716 0.275,-1.077 4.585,-16.935 20.824,-22.945 33.339,-22.945 h 10e-4 c 0.391,0 0.778,0.006 1.166,0.017 9.664,0.282 20.924,6.733 28.685,16.432 7.852,9.817 14.956,27.054 9.568,54.762"
             style="fill:#231f20;fill-opacity:1;fill-rule:nonzero;stroke:none"
             id="path26"
             inkscape:connector-curvature="0" /></g></g></g></g></svg>